<svg width="33" height="32" viewBox="0 0 33 32" fill="none" xmlns="http://www.w3.org/2000/svg">
<path fill-rule="evenodd" clip-rule="evenodd" d="M8.79688 0C4.37854 0 0.796875 3.58173 0.796875 8V24C0.796875 28.4183 4.37854 32 8.79688 32H24.7969C29.2152 32 32.7969 28.4183 32.7969 24V8C32.7969 3.58173 29.2152 0 24.7969 0H8.79688ZM10.37 19.8571C8.94983 19.8571 7.79858 21.0084 7.79858 22.4286C7.79858 23.8488 8.94983 25 10.37 25C11.7902 25 12.9414 23.8488 12.9414 22.4286C12.9414 21.0084 11.7902 19.8571 10.37 19.8571ZM19.7969 25H16.3679C16.3679 20.2737 12.5236 16.4282 7.79737 16.4282V13.0004C14.4136 13.0004 19.7969 18.3837 19.7969 25ZM22.3679 25H25.7969C25.7969 15.0743 17.7226 7 7.79688 7V10.4277C15.8327 10.4277 22.3679 16.9643 22.3679 25Z" fill="#EA6221"/>
</svg>
